<svg xmlns="http://www.w3.org/2000/svg" viewBox="0 0 536.44 536.44"><defs><style>.cls-1,.cls-2{fill:none;stroke:#000;stroke-miterlimit:10;}.cls-1{stroke-width:20px;}</style></defs><g id="Layer_1" data-name="Layer 1"><circle class="cls-1" cx="268.22" cy="268.22" r="258.22"/></g><g id="Layer_2" data-name="Layer 2"><path class="cls-2" d="M277.51,190.27" transform="translate(-54.34 -31.41)"/><path class="cls-2" d="M242.75,239.4" transform="translate(-54.34 -31.41)"/><path d="M236.05,244.14l6.7-4.74,30-26.69s14.74-20,0-45.62-42-63.88-55.36-62.68-74.82,40.43-78.16,97.73,20.31,110.14,44.51,143.52c0,0,83.05,143,211.21,143.4,56.5-8.44,91.46-51.16,96.13-59.45,6.23-18.13-32.47-51.43-32.47-51.43s-38.78-49.33-78.84-13.92-55.65,29.94-79.68,7.17S201.4,273.73,236.05,244.14Z" transform="translate(-54.34 -31.41)"/></g></svg>