<svg id="Layer_1" data-name="Layer 1" xmlns="http://www.w3.org/2000/svg" viewBox="0 0 582.26 582.26"><defs><style>.cls-1,.cls-2{fill:none;stroke:#000;stroke-miterlimit:10;}.cls-1{stroke-width:10px;}.cls-2{stroke-width:20px;}</style></defs><path class="cls-1" d="M255,175.2h0A25.81,25.81,0,0,0,280.81,201H500.66a25.8,25.8,0,0,1,25.81,25.8V428.5a25.8,25.8,0,0,1-25.81,25.81H121.19A25.8,25.8,0,0,1,95.38,428.5V175.2a25.8,25.8,0,0,1,25.81-25.81h108A25.81,25.81,0,0,1,255,175.2Z" transform="translate(-14.87 -14.87)"/><path d="M111.47,276.69a125.54,125.54,0,0,1,20.77-1.62c10.7,0,18.53,2.49,23.51,7,4.6,4,7.33,10.07,7.33,17.53s-2.24,13.56-6.46,17.91c-5.73,6.1-15.05,9.21-25.62,9.21a37.35,37.35,0,0,1-8.71-.75v33.58H111.47Zm10.82,40.42a36.45,36.45,0,0,0,9,.87c13.05,0,21-6.34,21-17.91,0-11.07-7.83-16.41-19.77-16.41a45.28,45.28,0,0,0-10.2.87Z" transform="translate(-14.87 -14.87)"/><path d="M175.27,318.1c0-7.08-.13-13.18-.5-18.77h9.58l.37,11.81h.5C188,303.06,194.54,298,201.88,298a11.84,11.84,0,0,1,3.11.37v10.32a16.39,16.39,0,0,0-3.73-.37c-7.71,0-13.18,5.84-14.68,14.05a31.87,31.87,0,0,0-.49,5.1v32.09H175.27Z" transform="translate(-14.87 -14.87)"/><path d="M269.16,328.92c0,22.26-15.42,32-30,32-16.29,0-28.85-11.93-28.85-31,0-20.15,13.18-32,29.84-32C257.47,298,269.16,310.52,269.16,328.92Zm-47.76.63c0,13.18,7.59,23.13,18.28,23.13,10.45,0,18.29-9.83,18.29-23.38,0-10.2-5.1-23.13-18-23.13S221.4,318.1,221.4,329.55Z" transform="translate(-14.87 -14.87)"/><path d="M268.28,376.93c5-.38,9.33-1.74,11.94-4.6,3-3.49,4.11-8.21,4.11-22.64V299.33h10.94v54.59c0,11.69-1.86,19.28-7.21,24.75-4.85,4.85-12.81,6.84-18.66,6.84Zm28.24-94.52c.12,3.61-2.49,6.72-6.85,6.72a6.53,6.53,0,0,1-6.71-6.72,6.7,6.7,0,0,1,7-6.84A6.48,6.48,0,0,1,296.52,282.41Z" transform="translate(-14.87 -14.87)"/><path d="M319.27,331.41c.25,14.8,9.7,20.89,20.64,20.89,7.84,0,12.57-1.37,16.67-3.11l1.86,7.84c-3.85,1.74-10.44,3.73-20,3.73-18.53,0-29.6-12.19-29.6-30.34S319.52,298,337.05,298c19.65,0,24.88,17.28,24.88,28.35a39.92,39.92,0,0,1-.38,5.1Zm32.09-7.83c.12-7-2.86-17.79-15.18-17.79-11.07,0-15.91,10.2-16.79,17.79Z" transform="translate(-14.87 -14.87)"/><path d="M418.38,357.28c-2.86,1.49-9.2,3.48-17.28,3.48-18.16,0-30-12.31-30-30.72s12.69-32,32.34-32a36.58,36.58,0,0,1,15.17,3.11l-2.49,8.46c-2.61-1.49-6.71-2.86-12.68-2.86-13.81,0-21.27,10.19-21.27,22.76,0,13.92,9,22.5,20.9,22.5a31.1,31.1,0,0,0,13.43-3Z" transform="translate(-14.87 -14.87)"/><path d="M446,282v17.29h15.66v8.33H446v32.46c0,7.46,2.11,11.69,8.2,11.69a24.53,24.53,0,0,0,6.35-.75l.49,8.21a26.79,26.79,0,0,1-9.7,1.49c-5.1,0-9.2-1.62-11.81-4.6-3.11-3.23-4.23-8.58-4.23-15.67V307.66H426v-8.33h9.33V284.9Z" transform="translate(-14.87 -14.87)"/><path d="M472.47,348.32a28.67,28.67,0,0,0,14.43,4.36c8,0,11.69-4,11.69-9,0-5.22-3.11-8.08-11.19-11.07-10.82-3.85-15.92-9.82-15.92-17,0-9.7,7.83-17.66,20.77-17.66A30,30,0,0,1,507,301.69l-2.73,8A23.45,23.45,0,0,0,492,306.17c-6.47,0-10.08,3.73-10.08,8.2,0,5,3.61,7.22,11.45,10.2,10.44,4,15.79,9.2,15.79,18.16,0,10.57-8.21,18-22.51,18a34.4,34.4,0,0,1-16.91-4.1Z" transform="translate(-14.87 -14.87)"/><circle class="cls-2" cx="291.13" cy="291.13" r="281.13"/></svg>